<svg width="868pt" height="734pt" viewBox="0 0 868 734" xmlns="http://www.w3.org/2000/svg"><path fill="#1fb3e1" d="M522.6 165.82c49.29-28.3 98.45-56.84 147.7-85.2 1.38.05 2.39 1.17 3.59 1.74 11.25 6.54 22.53 13.03 33.8 19.52.04 81.71.01 163.43.02 245.14-.05 11.03.38 22.12-1.18 33.07-2.5 21.1-9.34 41.55-18.88 60.49-7.47 15.39-17.28 29.64-29.12 42-11.6 13.02-25.33 24.04-40.34 32.9-52.8 30.45-105.59 60.92-158.36 91.42-11.35 7.23-23.89 12.36-36.59 16.69-7.34 2.48-14.68 5.02-22.28 6.58-30.59 6.44-62.74 6.47-93.11-1.13-12.1-3.15-24.18-6.67-35.38-12.34-16.07-7.16-31.06-16.58-44.64-27.75-11.87-9.32-21.99-20.59-31.4-32.32-11.09-14.05-20.76-29.38-27.28-46.1-7.8-18.98-13.2-39.04-15-59.51-1.21-11.29-.76-22.65-.85-33.97.06-76.71-.13-153.42.1-230.13 18.6-10.26 36.85-21.21 55.33-31.73 43.1-24.94 86.28-49.73 129.34-74.74 12.49 7.01 24.75 14.42 37.27 21.36-.03 85.39 0 170.77-.01 256.15.13 34.6 12.84 69.08 35.59 95.2 14.25 16.83 32.5 30.23 52.69 39.09 13.43 6.23 28.04 9.36 42.62 11.48 10.57-22.37 16.38-47 16.38-71.76 0-88.72 0-177.44-.01-266.15m-331.93 42.97c-.01 73.74 0 147.47 0 221.21-.23 30.32 7.82 60.75 23.52 86.74 20.02 33.64 52.33 59.71 89.42 72.19 40.8 13.54 86.87 10.96 125.52-8.04 15.61-7.4 29.72-17.67 42.36-29.38 4.41-4.34 8.23-9.22 12.61-13.6-19.5-3.89-38.13-11.46-55.27-21.46-16.38-10.28-31.88-22.23-44.74-36.75-10.26-12.43-19.65-25.67-26.87-40.11-9.58-18.96-15.44-39.71-18.11-60.75-1.45-11.89-1.05-23.89-1.1-35.83v-138.04c-.12-27.06.22-54.14-.17-81.2-48.99 28.46-98.11 56.69-147.17 85.02m370.29-21.85c-.23.25-.7.76-.94 1.01-.18 80.02-.03 160.05-.08 240.07.48 25.41-3.61 51.09-12.96 74.76 12.02-2.57 24.18-5.31 35.32-10.68 18.51-8 35.19-20.09 48.82-34.92 24.97-26.54 39.07-62.79 39.22-99.17v-234.23c-36.45 21.08-72.92 42.11-109.38 63.16z"/></svg>